<svg xmlns="http://www.w3.org/2000/svg" viewBox="0 0 32 32" fill="none">
  <!-- Background circle for trust/professionalism -->
  <circle cx="16" cy="16" r="15" fill="#2563eb"/>

  <!-- Left document -->
  <path d="M7 8C7 7.44772 7.44772 7 8 7H12.5858C12.851 7 13.1054 7.10536 13.2929 7.29289L15.7071 9.70711C15.8946 9.89464 16 10.149 16 10.4142V22C16 22.5523 15.5523 23 15 23H8C7.44772 23 7 22.5523 7 22V8Z" fill="white"/>
  <!-- Left document fold -->
  <path d="M12 7V10C12 10.5523 12.4477 11 13 11H16" stroke="#2563eb" stroke-width="0.5" fill="none"/>
  <!-- Left document lines -->
  <rect x="9" y="13" width="5" height="1" rx="0.5" fill="#93c5fd"/>
  <rect x="9" y="15.5" width="4" height="1" rx="0.5" fill="#93c5fd"/>
  <rect x="9" y="18" width="5" height="1" rx="0.5" fill="#93c5fd"/>

  <!-- Right document -->
  <path d="M17 10C17 9.44772 17.4477 9 18 9H22.5858C22.851 9 23.1054 9.10536 23.2929 9.29289L25.7071 11.7071C25.8946 11.8946 26 12.149 26 12.4142V24C26 24.5523 25.5523 25 25 25H18C17.4477 25 17 24.5523 17 24V10Z" fill="white"/>
  <!-- Right document fold -->
  <path d="M22 9V12C22 12.5523 22.4477 13 23 13H26" stroke="#2563eb" stroke-width="0.5" fill="none"/>
  <!-- Right document lines -->
  <rect x="19" y="15" width="5" height="1" rx="0.5" fill="#93c5fd"/>
  <rect x="19" y="17.5" width="4" height="1" rx="0.5" fill="#93c5fd"/>
  <rect x="19" y="20" width="5" height="1" rx="0.5" fill="#93c5fd"/>
</svg>
